<?xml version="1.0" encoding="utf-8"?>
<!-- Generator: Adobe Illustrator 21.1.0, SVG Export Plug-In . SVG Version: 6.00 Build 0)  -->
<svg version="1.1" id="Layer_1" xmlns="http://www.w3.org/2000/svg" xmlns:xlink="http://www.w3.org/1999/xlink" height="500px" x="0px" y="0px"
	 viewBox="0 0 512 512" style="enable-background:new 0 0 512 512;" xml:space="preserve">
<style type="text/css">
	.st0{fill:#475993; opacity:0.6;}
</style>
<g>
	<path class="st0" d="M375,93H136.1C111.7,93,92,112.7,92,137.1V376c0,24.3,19.7,44.1,44.1,44.1h117.8l0.2-116.9h-30.4
		c-3.9,0-7.1-3.2-7.2-7.1l-0.1-37.7c0-4,3.2-7.2,7.2-7.2h30.3v-36.4c0-42.2,25.8-65.2,63.5-65.2h30.9c4,0,7.2,3.2,7.2,7.2v31.8
		c0,4-3.2,7.2-7.2,7.2l-19,0c-20.5,0-24.5,9.7-24.5,24v31.5h45c4.3,0,7.6,3.7,7.1,8l-4.5,37.7c-0.4,3.6-3.5,6.3-7.1,6.3h-40.4
		L304.9,420H375c24.3,0,44.1-19.7,44.1-44.1V137.1C419,112.7,399.3,93,375,93L375,93z M375,93"/>
</g>
</svg>
