<svg id="Layer_1" data-name="Layer 1" xmlns="http://www.w3.org/2000/svg" height="500px" viewBox="0 0 1296 1836"><defs><style>.cls-1{fill:#fff; opacity:0.3;}</style></defs><title>fury</title><polyline class="cls-1" points="378 661.5 175.5 459 144 459 162 801 225 837 225 873 162 837 162 837 54 729 27 729 0 729 108 1161 162 1188 225 1188 225 1215 162 1215 108 1188 67.5 1188 121.5 1269 216 1404 324 1404 351 1368 351 1368 360 1368 378 1368 378 1368 333 1431 243 1431 405 1566 486 1485 486 1512 418.5 1579.5 459 1620 486 1620 648 1836 648 1242 540 1323 567 1350 540 1377 513 1350 432 1161 594 54 594 0 243 459 243 486 405 648 378 864 351 864"/><polyline class="cls-1" points="918 661.5 1120.5 459 1152 459 1134 801 1071 837 1071 873 1134 837 1134 837 1242 729 1269 729 1296 729 1188 1161 1134 1188 1071 1188 1071 1215 1134 1215 1188 1188 1228.5 1188 1174.5 1269 1080 1404 972 1404 945 1368 945 1368 936 1368 918 1368 918 1368 963 1431 1053 1431 891 1566 810 1485 810 1512 877.5 1579.5 837 1620 810 1620 648 1836 648 1242 756 1323 729 1350 756 1377 783 1350 864 1161 702 54 702 0 1053 459 1053 486 891 648 918 864 945 864"/></svg>